<svg xmlns="http://www.w3.org/2000/svg" xmlns:xlink="http://www.w3.org/1999/xlink" width="990" zoomAndPan="magnify" viewBox="0 0 742.5 104.999996" height="140" preserveAspectRatio="xMidYMid meet" version="1.0"><defs><clipPath id="4d96a0ef03"><path d="M 1 0.0351562 L 76 0.0351562 L 76 104.964844 L 1 104.964844 Z M 1 0.0351562 " clip-rule="nonzero"/></clipPath></defs><path fill="#ee2b2b" d="M 88.671875 21.46875 C 73.679688 7.496094 53.746094 9.195312 37.242188 20.265625 C 37.027344 20.507812 35.753906 21.15625 37.167969 19.117188 C 68.867188 -15.210938 127.148438 31.660156 94.589844 70.71875 C 101.878906 55.203125 103.707031 35.46875 88.671875 21.46875 Z M 88.671875 21.46875 " fill-opacity="1" fill-rule="evenodd"/><g clip-path="url(#4d96a0ef03)"><path fill="#ee2b2b" d="M 75.28125 5.289062 C 23.777344 -9.945312 -20.460938 68.992188 36.902344 104.414062 C -27.46875 76.921875 4.15625 -6.5625 60.8125 0.445312 C 65.441406 1.011719 72.519531 3.191406 75.28125 5.289062 Z M 75.28125 5.289062 " fill-opacity="1" fill-rule="evenodd"/></g><path fill="#ee2b2b" d="M 88.871094 55.984375 C 88.871094 73 74.984375 86.84375 57.882812 86.84375 C 40.765625 86.84375 26.878906 73 26.878906 55.984375 C 26.878906 38.953125 40.765625 25.121094 57.882812 25.121094 C 74.984375 25.121094 88.871094 38.953125 88.871094 55.984375 Z M 35.160156 60.074219 C 32.851562 63.570312 35.554688 72.488281 43.582031 77.753906 C 51.539062 83.023438 61.71875 82.625 64.097656 79.101562 C 66.402344 75.675781 61.476562 77.882812 52.460938 74.554688 C 37.59375 69.09375 37.453125 56.550781 35.160156 60.074219 Z M 35.160156 60.074219 " fill-opacity="1" fill-rule="evenodd"/><path fill="#ee2b2b" d="M 107.527344 36.234375 C 128.59375 76.355469 70.113281 127.871094 29.328125 91.402344 C 24.117188 86.773438 21.824219 82.300781 18.03125 76.496094 C 49.726562 119.871094 119.503906 85.613281 106.976562 36.871094 C 106.523438 35.085938 106.820312 34.917969 107.527344 36.234375 Z M 107.527344 36.234375 " fill-opacity="1" fill-rule="evenodd"/><path fill="#ffffff" d="M 128.214844 76.992188 L 128.214844 22.746094 L 166.667969 22.746094 L 166.667969 33.84375 L 141.921875 33.84375 L 141.921875 44.035156 L 162.929688 44.035156 L 162.929688 55.136719 L 141.921875 55.136719 L 141.921875 65.894531 L 166.667969 65.894531 L 166.667969 76.992188 Z M 128.214844 76.992188 " fill-opacity="1" fill-rule="nonzero"/><path fill="#ffffff" d="M 222.90625 76.992188 L 222.90625 42.449219 L 222.339844 42.449219 L 210.730469 76.992188 L 201.441406 76.992188 L 189.835938 42.449219 L 189.324219 42.449219 L 189.324219 76.992188 L 176.527344 76.992188 L 176.527344 22.746094 L 195.382812 22.746094 L 206.085938 54.058594 L 206.652344 54.058594 L 217.296875 22.746094 L 236.097656 22.746094 L 236.097656 76.992188 Z M 222.90625 76.992188 " fill-opacity="1" fill-rule="nonzero"/><path fill="#ffffff" d="M 281.609375 76.992188 L 278.382812 66.742188 L 259.074219 66.742188 L 256.015625 76.992188 L 242.253906 76.992188 L 259.640625 22.746094 L 278.210938 22.746094 L 295.597656 76.992188 Z M 268.867188 34.863281 L 268.472656 34.863281 L 262.242188 55.585938 L 275.15625 55.585938 Z M 268.867188 34.863281 " fill-opacity="1" fill-rule="nonzero"/><path fill="#ffffff" d="M 334.066406 76.992188 L 315.265625 46.019531 L 314.867188 46.019531 L 314.867188 76.992188 L 301.789062 76.992188 L 301.789062 22.746094 L 315.886719 22.746094 L 333.328125 50.886719 L 333.726562 50.886719 L 333.726562 22.746094 L 346.917969 22.746094 L 346.917969 76.992188 Z M 334.066406 76.992188 " fill-opacity="1" fill-rule="nonzero"/><path fill="#ffffff" d="M 392.445312 76.992188 L 389.21875 66.742188 L 369.90625 66.742188 L 366.851562 76.992188 L 353.089844 76.992188 L 370.472656 22.746094 L 389.046875 22.746094 L 406.433594 76.992188 Z M 379.703125 34.863281 L 379.308594 34.863281 L 373.078125 55.585938 L 385.988281 55.585938 Z M 379.703125 34.863281 " fill-opacity="1" fill-rule="nonzero"/><path fill="#ffffff" d="M 434.253906 55.699219 L 434.253906 45.28125 L 454.527344 45.28125 L 454.527344 75.804688 C 451.765625 76.339844 448.609375 76.765625 445.070312 77.105469 C 441.515625 77.445312 438.402344 77.617188 435.726562 77.617188 C 428.734375 77.617188 423.550781 76.90625 420.15625 75.464844 C 416.785156 74.035156 414.492188 71.414062 413.246094 67.59375 C 412 63.785156 411.378906 57.882812 411.378906 49.867188 C 411.378906 42.394531 412.015625 36.730469 413.300781 32.878906 C 414.578125 29 416.925781 26.226562 420.324219 24.554688 C 423.75 22.898438 428.875 22.066406 435.671875 22.066406 C 439.550781 22.066406 443.398438 22.320312 447.222656 22.800781 C 451.074219 23.296875 453.410156 23.679688 454.242188 23.933594 L 454.242188 34.296875 C 448.355469 33.589844 443.839844 33.21875 440.710938 33.21875 C 435.5 33.21875 431.933594 33.503906 430.007812 34.070312 C 428.082031 34.609375 426.792969 35.9375 426.15625 38.089844 C 425.546875 40.242188 425.25 44.175781 425.25 49.867188 C 425.25 55.007812 425.476562 58.703125 425.929688 60.96875 C 426.410156 63.203125 427.402344 64.734375 428.875 65.554688 C 430.375 66.390625 432.851562 66.800781 436.292969 66.800781 C 438.175781 66.800781 439.988281 66.730469 441.730469 66.574219 L 441.730469 55.699219 Z M 434.253906 55.699219 " fill-opacity="1" fill-rule="nonzero"/><path fill="#ffffff" d="M 465.53125 76.992188 L 465.53125 22.746094 L 503.980469 22.746094 L 503.980469 33.84375 L 479.234375 33.84375 L 479.234375 44.035156 L 500.242188 44.035156 L 500.242188 55.136719 L 479.234375 55.136719 L 479.234375 65.894531 L 503.980469 65.894531 L 503.980469 76.992188 Z M 465.53125 76.992188 " fill-opacity="1" fill-rule="nonzero"/><path fill="#ffffff" d="M 544.363281 76.992188 L 537.285156 57.964844 L 527.714844 57.964844 L 527.714844 76.992188 L 514.011719 76.992188 L 514.011719 22.746094 L 540.003906 22.746094 C 545.015625 22.746094 548.792969 23.453125 551.328125 24.839844 C 553.890625 26.199219 555.574219 28.109375 556.367188 30.558594 C 557.1875 33.023438 557.613281 36.304688 557.613281 40.410156 C 557.613281 44.191406 557.117188 47.476562 556.140625 50.265625 C 555.148438 53.066406 553.226562 55.078125 550.367188 56.324219 L 558.746094 76.992188 Z M 534.792969 47.09375 C 537.652344 47.09375 539.675781 46.953125 540.851562 46.640625 C 542.011719 46.300781 542.792969 45.707031 543.171875 44.828125 C 543.542969 43.964844 543.738281 42.507812 543.738281 40.46875 C 543.738281 38.359375 543.570312 36.871094 543.230469 35.996094 C 542.917969 35.132812 542.167969 34.550781 540.964844 34.238281 C 539.789062 33.941406 537.792969 33.785156 534.960938 33.785156 L 527.714844 33.785156 L 527.714844 47.09375 Z M 534.792969 47.09375 " fill-opacity="1" fill-rule="nonzero"/><path fill="#ffffff" d="M 566.800781 65.328125 L 580.277344 65.328125 L 580.277344 76.992188 L 566.800781 76.992188 Z M 566.800781 65.328125 " fill-opacity="1" fill-rule="nonzero"/><path fill="#ee2b2b" d="M 591.128906 22.746094 L 616.894531 22.746094 C 621.71875 22.746094 625.359375 23.464844 627.820312 24.894531 C 630.3125 26.296875 631.957031 28.28125 632.75 30.84375 C 633.570312 33.417969 633.996094 36.871094 633.996094 41.203125 C 633.996094 45.253906 633.613281 48.550781 632.863281 51.113281 C 632.097656 53.691406 630.484375 55.742188 627.992188 57.285156 C 625.5 58.800781 621.792969 59.550781 616.894531 59.550781 L 604.832031 59.550781 L 604.832031 76.992188 L 591.128906 76.992188 Z M 611.230469 48.621094 C 614.019531 48.621094 616.015625 48.453125 617.234375 48.113281 C 618.4375 47.746094 619.214844 47.078125 619.554688 46.132812 C 619.921875 45.15625 620.121094 43.511719 620.121094 41.203125 C 620.121094 38.867188 619.921875 37.226562 619.554688 36.277344 C 619.214844 35.300781 618.4375 34.636719 617.234375 34.296875 C 616.058594 33.957031 614.0625 33.785156 611.230469 33.785156 L 604.832031 33.785156 L 604.832031 48.621094 Z M 611.230469 48.621094 " fill-opacity="1" fill-rule="nonzero"/><path fill="#ee2b2b" d="M 672.71875 76.992188 L 665.640625 57.964844 L 656.070312 57.964844 L 656.070312 76.992188 L 642.367188 76.992188 L 642.367188 22.746094 L 668.359375 22.746094 C 673.371094 22.746094 677.148438 23.453125 679.683594 24.839844 C 682.246094 26.199219 683.929688 28.109375 684.722656 30.558594 C 685.546875 33.023438 685.96875 36.304688 685.96875 40.410156 C 685.96875 44.191406 685.472656 47.476562 684.496094 50.265625 C 683.507812 53.066406 681.582031 55.078125 678.722656 56.324219 L 687.101562 76.992188 Z M 663.148438 47.09375 C 666.007812 47.09375 668.035156 46.953125 669.207031 46.640625 C 670.371094 46.300781 671.148438 45.707031 671.53125 44.828125 C 671.898438 43.964844 672.097656 42.507812 672.097656 40.46875 C 672.097656 38.359375 671.925781 36.871094 671.585938 35.996094 C 671.273438 35.132812 670.523438 34.550781 669.320312 34.238281 C 668.148438 33.941406 666.152344 33.785156 663.320312 33.785156 L 656.070312 33.785156 L 656.070312 47.09375 Z M 663.148438 47.09375 " fill-opacity="1" fill-rule="nonzero"/><path fill="#ee2b2b" d="M 718.035156 77.617188 C 710.402344 77.617188 704.96875 76.824219 701.726562 75.238281 C 698.511719 73.625 696.488281 71.046875 695.667969 67.535156 C 694.875 64.023438 694.476562 58.136719 694.476562 49.867188 C 694.476562 41.601562 694.875 35.710938 695.667969 32.199219 C 696.488281 28.660156 698.511719 26.085938 701.726562 24.5 C 704.96875 22.886719 710.402344 22.066406 718.035156 22.066406 C 725.648438 22.066406 731.074219 22.886719 734.285156 24.5 C 737.527344 26.085938 739.550781 28.660156 740.34375 32.199219 C 741.136719 35.710938 741.535156 41.601562 741.535156 49.867188 C 741.535156 58.136719 741.136719 64.023438 740.34375 67.535156 C 739.550781 71.046875 737.527344 73.625 734.285156 75.238281 C 731.074219 76.824219 725.648438 77.617188 718.035156 77.617188 Z M 718.035156 66.515625 C 721.460938 66.515625 723.753906 66.234375 724.886719 65.667969 C 726.046875 65.101562 726.78125 63.839844 727.09375 61.875 C 727.433594 59.878906 727.605469 55.871094 727.605469 49.867188 C 727.605469 43.867188 727.433594 39.875 727.09375 37.863281 C 726.78125 35.867188 726.046875 34.609375 724.886719 34.070312 C 723.753906 33.503906 721.460938 33.21875 718.035156 33.21875 C 714.636719 33.21875 712.328125 33.503906 711.125 34.070312 C 709.90625 34.609375 709.144531 35.910156 708.804688 37.976562 C 708.492188 40.015625 708.351562 43.980469 708.351562 49.867188 C 708.351562 55.757812 708.492188 59.722656 708.804688 61.761719 C 709.144531 63.796875 709.90625 65.101562 711.125 65.667969 C 712.328125 66.234375 714.636719 66.515625 718.035156 66.515625 Z M 718.035156 66.515625 " fill-opacity="1" fill-rule="nonzero"/></svg>